HIERARCHY
ROOT Hips
{
	OFFSET 0.000000 0.000000 0.000000
	CHANNELS 6 Xposition Yposition Zposition Zrotation Yrotation Xrotation 
	JOINT LHipJoint
	{
		OFFSET 0.000000 0.000000 0.000000
		CHANNELS 3 Zrotation Yrotation Xrotation
		JOINT LeftUpLeg
		{
			OFFSET 1.363060 -1.794630 0.839290
			CHANNELS 3 Zrotation Yrotation Xrotation
			JOINT LeftLeg
			{
				OFFSET 2.448110 -6.726130 0.000000
				CHANNELS 3 Zrotation Yrotation Xrotation
				JOINT LeftFoot
				{
					OFFSET 2.562200 -7.039590 0.000000
					CHANNELS 3 Zrotation Yrotation Xrotation
					JOINT LeftToeBase
					{
						OFFSET 0.157640 -0.433110 2.322550
						CHANNELS 3 Zrotation Yrotation Xrotation
						End Site
						{
							OFFSET 0.000000 0.000000 0.000000
						}
					}
				}
			}
		}
	}
	JOINT RHipJoint
	{
		OFFSET 0.000000 0.000000 0.000000
		CHANNELS 3 Zrotation Yrotation Xrotation
		JOINT RightUpLeg
		{
			OFFSET -1.305520 -1.794630 0.839290
			CHANNELS 3 Zrotation Yrotation Xrotation
			JOINT RightLeg
			{
				OFFSET -2.542530 -6.985550 0.000000
				CHANNELS 3 Zrotation Yrotation Xrotation
				JOINT RightFoot
				{
					OFFSET -2.568260 -7.056230 0.000000
					CHANNELS 3 Zrotation Yrotation Xrotation
					JOINT RightToeBase
					{
						OFFSET -0.164730 -0.452590 2.363150
						CHANNELS 3 Zrotation Yrotation Xrotation
						End Site
						{
							OFFSET 0.000000 0.000000 0.000000
						}
					}
				}
			}
		}
	}
	JOINT LowerBack
	{
		OFFSET 0.000000 0.000000 0.000000
		CHANNELS 3 Zrotation Yrotation Xrotation
		JOINT Spine
		{
			OFFSET 0.028270 2.035590 -0.193380
			CHANNELS 3 Zrotation Yrotation Xrotation
			JOINT Spine1
			{
				OFFSET 0.056720 2.048850 -0.042750
				CHANNELS 3 Zrotation Yrotation Xrotation
				JOINT Neck
				{
					OFFSET 0.000000 0.000000 0.000000
					CHANNELS 3 Zrotation Yrotation Xrotation
					JOINT Neck1
					{
						OFFSET -0.054170 1.746240 0.172020
						CHANNELS 3 Zrotation Yrotation Xrotation
						JOINT Head
						{
							OFFSET 0.104070 1.761360 -0.123970
							CHANNELS 3 Zrotation Yrotation Xrotation
							End Site
							{
								OFFSET 0.000000 0.000000 0.000000
							}
						}
					}
				}
				JOINT LeftShoulder
				{
					OFFSET 0.000000 0.000000 0.000000
					CHANNELS 3 Zrotation Yrotation Xrotation
					JOINT LeftArm
					{
						OFFSET 3.362410 1.200890 -0.311210
						CHANNELS 3 Zrotation Yrotation Xrotation
						JOINT LeftForeArm
						{
							OFFSET 4.983000 -0.000000 -0.000000
							CHANNELS 3 Zrotation Yrotation Xrotation
							JOINT LeftHand
							{
								OFFSET 3.483560 -0.000000 -0.000000
								CHANNELS 3 Zrotation Yrotation Xrotation
								JOINT LeftFingerBase
								{
									OFFSET 0.000000 0.000000 0.000000
									CHANNELS 3 Zrotation Yrotation Xrotation
									JOINT LeftHandIndex1
									{
										OFFSET 0.715260 -0.000000 -0.000000
										CHANNELS 3 Zrotation Yrotation Xrotation
										End Site
										{
											OFFSET 0.000000 0.000000 0.000000
										}
									}
								}
								JOINT LThumb
								{
									OFFSET 0.000000 0.000000 0.000000
									CHANNELS 3 Zrotation Yrotation Xrotation
									End Site
									{
										OFFSET 0.000000 0.000000 0.000000
									}
								}
							}
						}
					}
				}
				JOINT RightShoulder
				{
					OFFSET 0.000000 0.000000 0.000000
					CHANNELS 3 Zrotation Yrotation Xrotation
					JOINT RightArm
					{
						OFFSET -3.136600 1.374050 -0.404650
						CHANNELS 3 Zrotation Yrotation Xrotation
						JOINT RightForeArm
						{
							OFFSET -5.241900 -0.000000 -0.000000
							CHANNELS 3 Zrotation Yrotation Xrotation
							JOINT RightHand
							{
								OFFSET -3.444170 -0.000000 -0.000000
								CHANNELS 3 Zrotation Yrotation Xrotation
								JOINT RightFingerBase
								{
									OFFSET 0.000000 0.000000 0.000000
									CHANNELS 3 Zrotation Yrotation Xrotation
									JOINT RightHandIndex1
									{
										OFFSET -0.622530 -0.000000 -0.000000
										CHANNELS 3 Zrotation Yrotation Xrotation
										End Site
										{
											OFFSET 0.000000 0.000000 0.000000
										}
									}
								}
								JOINT RThumb
								{
									OFFSET 0.000000 0.000000 0.000000
									CHANNELS 3 Zrotation Yrotation Xrotation
									End Site
									{
										OFFSET 0.000000 0.000000 0.000000
									}
								}
							}
						}
					}
				}
			}
		}
	}
}
MOTION
Frames: 8
Frame Time: 0.008333
-0.906345 18.434341 7.769979 -11.203322 -9.171806 8.710462 7.667707 5.882730 1.313031 -23.185016 -43.447378 26.775268 -4.174843 -3.085812 -2.749909 -12.001263 44.807280 -41.672244 1.077200 6.597300 18.527700 0.311327 -4.849691 2.719307 26.528492 24.883251 2.326343 3.259920 0.038128 2.446211 3.329772 -12.807400 4.729791 -0.005600 0.484600 -1.331500 -6.800278 -2.225001 -0.096749 29.377004 -3.521665 7.906191 -7.698364 -3.562132 -20.753310 -3.492047 -0.202993 -24.549492 14.761071 -2.578675 32.275597 2.829400 1.358400 9.185300 -7.564048 -7.661520 -0.613288 -53.748221 -45.533139 12.158772 41.279875 -38.405465 -19.531145 0.858428 -1.481761 -69.109593 3.350486 3.919773 0.405900 -7.125000 0.000000 0.000000 -18.266100 34.743700 4.805400 7.491382 10.878443 3.729228 55.049610 36.464588 91.734068 -133.496895 46.683048 -99.307606 -0.911693 -0.268525 -30.737839 -8.371117 -59.671358 6.456400 7.125000 0.000000 0.000000 94.719800 -74.551700 -78.913200 
-0.905085 18.434866 7.772919 -11.016575 -9.230593 8.790232 7.551937 5.852707 1.263954 -23.285740 -43.463823 26.762418 -4.174421 -3.061843 -2.754528 -11.987301 44.839697 -41.752799 1.085600 6.621900 18.600100 0.194169 -4.833864 2.628319 26.437951 24.887546 2.297647 3.260639 0.033862 2.456986 3.329010 -12.796817 4.706065 -0.006000 0.499800 -1.373300 -6.293127 -2.173377 0.323189 28.250368 -3.261137 7.188141 -7.641065 -3.494531 -20.760313 -3.491536 -0.269361 -24.374989 15.128481 -2.778721 31.816768 2.833900 1.268500 8.994000 -7.603909 -7.636896 -0.541690 -53.724522 -45.351931 12.415806 41.296106 -38.550939 -19.605741 0.867331 -1.489653 -69.149833 3.357301 4.082560 0.420300 -7.125000 0.000000 0.000000 -18.295500 34.909000 4.736400 7.830804 10.749754 3.764520 55.207352 36.155819 91.631712 -133.647647 46.712767 -99.412422 -0.908388 -0.264467 -30.633947 -7.686597 -59.568380 5.857300 7.125000 0.000000 0.000000 94.170900 -74.351900 -78.111800 
-0.903825 18.435811 7.776594 -11.005298 -9.250604 8.779751 7.544576 5.857495 1.288266 -23.390284 -43.568558 26.893120 -4.182741 -3.069366 -2.754018 -11.862258 44.779837 -42.027655 1.105600 6.680900 18.773400 0.198210 -4.839140 2.648989 26.400027 24.863084 2.265091 3.258871 0.029557 2.471115 3.309815 -12.741299 4.751635 -0.006500 0.521300 -1.432500 -6.287853 -2.173381 0.283720 28.232448 -3.309211 7.397858 -7.653336 -3.492626 -20.802844 -3.546088 -0.379574 -24.262286 15.014047 -2.791335 31.019377 2.770000 1.184700 8.800500 -7.583414 -7.645351 -0.571492 -53.738613 -45.350473 12.422705 41.366986 -38.596684 -19.665849 0.856725 -1.484105 -69.115309 3.397447 3.938890 0.411900 -7.125000 0.000000 0.000000 -18.230600 34.763800 4.785800 7.819438 10.730208 3.705234 55.065884 36.102616 91.417843 -133.826761 46.608248 -99.546722 -0.907154 -0.268284 -30.562945 -7.024538 -59.555809 5.278900 7.125000 0.000000 0.000000 93.962700 -74.142900 -77.660800 
-0.902880 18.436126 7.781319 -11.094087 -9.241545 8.761646 7.580329 5.863366 1.306450 -23.369355 -43.580464 26.954595 -4.185921 -3.081489 -2.756512 -11.841554 44.769508 -42.083770 1.086700 6.625400 18.610200 0.233745 -4.847742 2.683842 26.451661 24.822911 2.249461 3.255172 0.018956 2.499787 3.284335 -12.673930 4.800595 -0.008200 0.585300 -1.608400 -6.360684 -2.190609 0.216807 28.589259 -3.405825 7.663103 -7.780706 -3.532486 -20.822043 -3.852497 -0.519593 -23.935261 15.135717 -2.808452 29.749410 2.762700 1.082700 8.493100 -7.538231 -7.680600 -0.616200 -53.738425 -45.291279 12.327241 41.459858 -38.644051 -19.744489 0.847881 -1.472057 -69.076403 3.367190 3.761940 0.393700 -7.125000 0.000000 0.000000 -18.219700 34.582000 4.867500 7.733386 10.710628 3.624145 54.939414 36.091745 91.300585 -133.961310 46.511355 -99.643237 -0.904406 -0.273863 -30.554459 -7.142948 -59.606595 5.383700 7.125000 0.000000 0.000000 94.146200 -74.174500 -77.890500 
-0.902040 18.436231 7.786884 -11.132591 -9.246671 8.763757 7.599642 5.861490 1.307315 -23.349792 -43.532446 26.947692 -4.183861 -3.085443 -2.757392 -11.948571 44.878710 -41.980194 1.053900 6.527700 18.323500 0.246672 -4.851017 2.700503 26.461158 24.754933 2.210932 3.251935 0.010405 2.523682 3.254276 -12.592773 4.859751 -0.009300 0.624300 -1.715400 -6.380896 -2.181809 0.207587 28.754423 -3.425217 7.752418 -7.877640 -3.545344 -20.820924 -4.181974 -0.664909 -23.753671 15.413356 -2.911506 28.837683 2.800000 0.982700 8.281000 -7.508635 -7.709103 -0.628769 -53.781119 -45.251377 12.307930 41.506454 -38.673071 -19.789900 0.852730 -1.470006 -69.008031 3.312039 3.800065 0.391600 -7.125000 0.000000 0.000000 -18.277300 34.620000 4.866400 7.709497 10.686486 3.566931 54.794276 36.024937 91.165032 -134.074790 46.445689 -99.719529 -0.900229 -0.277804 -30.509923 -7.478814 -59.688359 5.681500 7.125000 0.000000 0.000000 94.489100 -74.271100 -78.361000 
-0.901410 18.435601 7.792974 -11.161700 -9.247562 8.793706 7.606901 5.857941 1.304680 -23.326506 -43.525301 26.937351 -4.183858 -3.085768 -2.754593 -11.971299 44.907360 -41.972132 1.060600 6.547900 18.382600 0.253398 -4.851443 2.705418 26.465354 24.709563 2.171955 3.250710 0.008854 2.527030 3.233315 -12.534255 4.878336 -0.009300 0.622600 -1.710900 -6.374227 -2.161175 0.212689 28.852992 -3.407671 7.755821 -7.957445 -3.548451 -20.812284 -4.490390 -0.842159 -23.738856 15.585622 -3.047577 28.162908 2.822600 0.871900 8.142100 -7.493127 -7.733673 -0.627377 -53.828676 -45.269254 12.300934 41.504968 -38.664859 -19.790152 0.860351 -1.481696 -68.925796 3.357815 3.973790 0.410600 -7.125000 0.000000 0.000000 -18.277600 34.800200 4.782300 7.698653 10.671131 3.523955 54.590077 35.976858 91.013925 -134.175151 46.385544 -99.792694 -0.900005 -0.279842 -30.411095 -7.430719 -59.675112 5.637600 7.125000 0.000000 0.000000 94.419500 -74.257800 -78.272500 
-0.900465 18.434971 7.799274 -11.258359 -9.199507 8.829949 7.650042 5.856300 1.299601 -23.215515 -43.495430 26.873541 -4.184512 -3.091884 -2.750815 -11.903085 44.792015 -41.955314 1.082100 6.611600 18.569600 0.298513 -4.858345 2.718334 26.527742 24.757455 2.196760 3.252157 0.012211 2.506492 3.249736 -12.586124 4.831518 -0.010400 0.657200 -1.806000 -6.496142 -2.195852 0.192194 29.325702 -3.493473 7.819841 -8.048293 -3.606047 -20.803052 -4.656884 -0.958447 -23.579082 15.321562 -2.982793 27.223267 2.755300 0.794300 7.940600 -7.480263 -7.762759 -0.662559 -53.741732 -45.216356 12.069834 41.503250 -38.649888 -19.789299 0.865682 -1.491883 -68.968145 3.426963 4.112418 0.429400 -7.125000 0.000000 0.000000 -18.248700 34.943700 4.707000 7.573237 10.681663 3.476910 54.431761 36.071622 91.059891 -134.270064 46.291427 -99.864104 -0.899579 -0.285989 -30.406056 -7.322942 -59.713216 5.542900 7.125000 0.000000 0.000000 94.512500 -74.217900 -78.327500 
-0.898995 18.434866 7.806098 -11.314701 -9.133202 8.897636 7.693945 5.849886 1.273155 -23.207426 -43.543419 26.880859 -4.186341 -3.102434 -2.769069 -11.870209 44.763197 -42.003233 1.086600 6.624900 18.608800 0.344897 -4.860731 2.712178 26.535156 24.811184 2.206758 3.255179 0.019434 2.466710 3.277213 -12.676796 4.797729 -0.011500 0.691800 -1.901100 -6.681803 -2.276681 0.206541 29.840334 -3.609955 7.729634 -8.068797 -3.687273 -20.801745 -4.817221 -1.035520 -23.758159 15.163076 -2.974141 27.176383 2.753200 0.771900 7.976000 -7.484944 -7.766234 -0.672746 -53.588530 -45.034939 11.735562 41.476791 -38.647103 -19.779821 0.868161 -1.486346 -69.059764 3.370285 4.095964 0.422200 -7.125000 0.000000 0.000000 -18.292900 34.923400 4.729000 7.453178 10.717295 3.484847 54.373777 36.195828 91.305278 -134.358754 46.203590 -99.923987 -0.893085 -0.295462 -30.503357 -7.340445 -59.935614 5.570500 7.125000 0.000000 0.000000 95.270600 -74.191900 -79.106900 
